<svg width="24" height="24" viewBox="0 0 24 24" fill="none" xmlns="http://www.w3.org/2000/svg">
<path d="M5.625 2.8125C5.625 2.29475 5.20525 1.875 4.6875 1.875H2.8125C2.29475 1.875 1.875 2.29475 1.875 2.8125V11.8125C1.875 12.3302 2.29475 12.75 2.8125 12.75H4.6875C5.20525 12.75 5.625 12.3302 5.625 11.8125V2.8125ZM7.5 11.8125C7.5 13.3658 6.24078 14.625 4.6875 14.625H2.8125C1.25922 14.625 0 13.3658 0 11.8125V2.8125C0 1.25922 1.25922 0 2.8125 0H4.6875C6.24078 0 7.5 1.25922 7.5 2.8125V11.8125Z" fill="#1D1D1D"/>
<path d="M12.75 19.3125C12.75 18.7948 12.3302 18.375 11.8125 18.375H2.8125C2.29475 18.375 1.875 18.7948 1.875 19.3125V21.1875C1.875 21.7052 2.29475 22.125 2.8125 22.125H11.8125C12.3302 22.125 12.75 21.7052 12.75 21.1875V19.3125ZM14.625 21.1875C14.625 22.7408 13.3658 24 11.8125 24H2.8125C1.25922 24 0 22.7408 0 21.1875V19.3125C0 17.7592 1.25922 16.5 2.8125 16.5H11.8125C13.3658 16.5 14.625 17.7592 14.625 19.3125V21.1875Z" fill="#1D1D1D"/>
<path d="M22.125 19.3125C22.125 18.7948 21.7052 18.375 21.1875 18.375H19.3125C18.7948 18.375 18.375 18.7948 18.375 19.3125V21.1875C18.375 21.7052 18.7948 22.125 19.3125 22.125H21.1875C21.7052 22.125 22.125 21.7052 22.125 21.1875V19.3125ZM24 21.1875C24 22.7408 22.7408 24 21.1875 24H19.3125C17.7592 24 16.5 22.7408 16.5 21.1875V19.3125C16.5 17.7592 17.7592 16.5 19.3125 16.5H21.1875C22.7408 16.5 24 17.7592 24 19.3125V21.1875Z" fill="#1D1D1D"/>
<path d="M22.125 2.8125C22.125 2.29475 21.7052 1.875 21.1875 1.875H12.1875C11.6698 1.875 11.25 2.29475 11.25 2.8125V11.8125C11.25 12.3302 11.6698 12.75 12.1875 12.75H21.1875C21.7052 12.75 22.125 12.3302 22.125 11.8125V2.8125ZM24 11.8125C24 13.3658 22.7408 14.625 21.1875 14.625H12.1875C10.6342 14.625 9.375 13.3658 9.375 11.8125V2.8125C9.375 1.25922 10.6342 0 12.1875 0H21.1875C22.7408 0 24 1.25922 24 2.8125V11.8125Z" fill="#1D1D1D"/>
</svg>
