<svg width="25" height="24" viewBox="0 0 25 24" fill="none" xmlns="http://www.w3.org/2000/svg">
    <path d="M19.6988 19.1988C20.7971 18.1005 22.5779 18.1005 23.6762 19.1988C24.7746 20.2972 24.7746 22.0779 23.6762 23.1762C22.5779 24.2746 20.7971 24.2746 19.6988 23.1762C18.6004 22.0779 18.6004 20.2972 19.6988 19.1988ZM10.5113 19.1987C11.6096 18.1004 13.3904 18.1004 14.4888 19.1987C15.5871 20.2971 15.5871 22.0779 14.4888 23.1762C13.3904 24.2745 11.6096 24.2745 10.5113 23.1762C9.41293 22.0779 9.41293 20.2971 10.5113 19.1987ZM1.34962 19.1731C2.44989 18.1004 4.21148 18.1089 5.30125 19.1987C6.3996 20.297 6.3996 22.0778 5.30125 23.1762C4.21148 24.2659 2.44989 24.2744 1.34962 23.2017L1.32376 23.1762C0.225411 22.0778 0.225417 20.297 1.32376 19.1987L1.34962 19.1731ZM22.3504 20.5246C21.9843 20.1585 21.3907 20.1585 21.0246 20.5246C20.6585 20.8908 20.6585 21.4843 21.0246 21.8504C21.3907 22.2165 21.9843 22.2165 22.3504 21.8504C22.7165 21.4843 22.7165 20.8908 22.3504 20.5246ZM13.1629 20.5246C12.7968 20.1584 12.2032 20.1585 11.8371 20.5246C11.471 20.8907 11.471 21.4843 11.8371 21.8504C12.2032 22.2165 12.7968 22.2165 13.1629 21.8504C13.529 21.4843 13.529 20.8907 13.1629 20.5246ZM3.97542 20.5245C3.60931 20.1584 3.0157 20.1584 2.64959 20.5245C2.28348 20.8906 2.28348 21.4842 2.64959 21.8503C3.0157 22.2164 3.60931 22.2164 3.97542 21.8503C4.34153 21.4842 4.34153 20.8906 3.97542 20.5245ZM17.1878 3.75001C17.1878 2.71447 16.3483 1.875 15.3127 1.875H9.68771C8.65217 1.87501 7.8127 2.71448 7.8127 3.75001V5.62501C7.8127 6.66054 8.65217 7.50001 9.68771 7.50001H15.3127C16.3483 7.50001 17.1878 6.66054 17.1878 5.62501V3.75001ZM19.0628 5.62501C19.0628 7.69608 17.3838 9.37501 15.3127 9.37501H13.4377V11.0625H19.8128C21.3661 11.0625 22.6253 12.3217 22.6253 13.875V15.5625C22.6253 16.0803 22.2056 16.5 21.6878 16.5C21.17 16.5 20.7503 16.0803 20.7503 15.5625V13.875C20.7503 13.3573 20.3305 12.9375 19.8128 12.9375H13.4377V15.5625C13.4377 16.0803 13.018 16.5 12.5002 16.5C11.9825 16.5 11.5627 16.0803 11.5627 15.5625V12.9375H5.18768C4.66993 12.9375 4.25017 13.3573 4.25017 13.875V15.5625C4.25017 16.0803 3.83043 16.5 3.31266 16.5C2.7949 16.5 2.37516 16.0803 2.37516 15.5625V13.875C2.37516 12.3217 3.63439 11.0625 5.18768 11.0625H11.5627V9.37501H9.68771C7.61663 9.37501 5.93768 7.69607 5.93768 5.62501V3.75001C5.93768 1.67894 7.61663 4.63873e-06 9.68771 0H15.3127C17.3838 0 19.0628 1.67894 19.0628 3.75001V5.62501Z" fill="currentColor"/>
</svg>