<svg width="24" height="24" viewBox="0 0 24 24" fill="none" xmlns="http://www.w3.org/2000/svg">
    <mask id="mask0_480_5375" style="mask-type:luminance" maskUnits="userSpaceOnUse" x="0" y="0" width="24" height="24">
    <path d="M0 -1.90735e-06H24V24H0V-1.90735e-06Z" fill="white"/>
    </mask>
    <g mask="url(#mask0_480_5375)">
    <path d="M23.0625 12.936L23.0867 12.9357C23.5933 12.9229 24 12.5082 24 11.9985C24 11.4888 23.5933 11.0742 23.0867 11.0613L23.0625 11.061H8.43751C7.91974 11.061 7.5 11.4808 7.5 11.9985C7.5 12.5163 7.91974 12.936 8.43751 12.936H23.0625Z" fill="#1D1D1D"/>
    <path d="M19.5871 15.474C19.9475 15.8343 20.5283 15.84 20.8956 15.4908L20.9129 15.474L23.7254 12.6615C24.0915 12.2953 24.0915 11.7017 23.7254 11.3356L20.9129 8.52311C20.5468 8.15699 19.9532 8.15699 19.5871 8.52311C19.221 8.88922 19.221 9.48283 19.5871 9.84895L21.7367 11.9985L19.5871 14.1481L19.5702 14.1654C19.2211 14.5327 19.2267 15.1136 19.5871 15.474Z" fill="#1D1D1D"/>
    <path d="M14.625 15.7485V19.311C14.625 20.8643 13.3658 22.1235 11.8125 22.1235H4.68752C3.13422 22.1235 1.87502 20.8643 1.87502 19.311V4.68601C1.87503 3.13263 3.1342 1.87351 4.68752 1.87351H11.8125C13.3658 1.87351 14.625 3.13264 14.625 4.68601V8.24854C14.625 8.7663 15.0447 9.18601 15.5625 9.18601C16.0803 9.18601 16.5 8.7663 16.5 8.24854V4.68601C16.5 2.09706 14.4013 -0.00147629 11.8125 -0.00147629H4.68752C2.0987 -0.00147629 6.77654e-06 2.09706 0 4.68601V19.311C0 21.8998 2.09867 23.9985 4.68752 23.9985H11.8125C14.4013 23.9985 16.5 21.8998 16.5 19.311V15.7485C16.5 15.2308 16.0803 14.811 15.5625 14.811C15.0447 14.811 14.625 15.2308 14.625 15.7485Z" fill="#1D1D1D"/>
    </g>
</svg>