<svg width="24" height="24" viewBox="0 0 24 24" fill="none" xmlns="http://www.w3.org/2000/svg">
    <path d="M22.125 12.4711V20.1032C22.125 21.533 20.6772 22.5077 19.3524 21.9709L16.3911 20.7403C16.2167 20.6679 16.0245 20.6497 15.8397 20.6883L9.26328 22.0604C8.4924 22.1972 7.69887 22.1169 6.97147 21.8286L6.93672 21.8147L3.92016 20.5882C2.68366 20.0855 1.87502 18.8839 1.87502 17.5493V3.89373L1.87526 3.8603C1.89763 2.44811 3.33445 1.49253 4.64944 2.02685L7.60895 3.25662L7.62532 3.26324C7.7951 3.33007 7.98085 3.34597 8.15974 3.30876L12.2847 2.45059C12.7916 2.34514 13.117 1.8488 13.0116 1.34199C12.9061 0.835202 12.4097 0.50985 11.9028 0.615294L8.0612 1.41449L5.35624 0.290475C2.81772 -0.741657 0.0436951 1.10306 0.000514983 3.8292L0 3.89373V17.5493C1.22198e-06 19.6465 1.27073 21.5347 3.21384 22.3247L6.2303 23.5511C7.28297 23.9792 8.43406 24.1042 9.55345 23.9128L9.60674 23.9034L9.63201 23.8985L15.939 22.5826L18.6437 23.7065L18.7037 23.7303C21.2458 24.7173 24 22.843 24 20.1032V12.4711C24 11.9535 23.5802 11.5338 23.0625 11.5338C22.5447 11.5338 22.125 11.9535 22.125 12.4711Z" fill="currentColor"/>
    <path d="M22.125 5.02703C22.125 5.19816 22.0685 5.47501 21.9141 5.86387C21.7644 6.24095 21.5457 6.66672 21.2788 7.11794C20.745 8.02033 20.059 8.95696 19.4696 9.70504C19.2223 10.0188 18.7464 10.0188 18.4991 9.705C17.9097 8.95693 17.2238 8.02032 16.69 7.11794C16.4231 6.66672 16.2043 6.24095 16.0546 5.86387C15.9002 5.47501 15.8437 5.19816 15.8437 5.02703C15.8437 3.28646 17.2479 1.87955 18.9844 1.87954C20.7207 1.87954 22.125 3.28645 22.125 5.02703ZM24 5.02703C24 2.2556 21.7607 0.00493977 18.9844 0.00493977C16.208 0.00494679 13.9687 2.25559 13.9687 5.02703C13.9687 5.53851 14.1188 6.06927 14.3119 6.55556C14.5097 7.05362 14.7794 7.57055 15.0761 8.07219C15.6696 9.07554 16.4119 10.0853 17.0262 10.8651L17.0498 10.8945C18.0463 12.1218 19.9225 12.1218 20.9189 10.8945L20.9425 10.8651L21.0591 10.7162C21.649 9.95913 22.3362 9.01283 22.8926 8.07219C23.1894 7.57055 23.4591 7.05362 23.6568 6.55556C23.8499 6.06927 24 5.53851 24 5.02703Z" fill="currentColor"/>
    <path d="M14.9062 13.5021V17.9972C14.9062 18.5149 15.326 18.9345 15.8437 18.9345C16.3615 18.9345 16.7812 18.5149 16.7812 17.9972V13.5021C16.7812 12.9845 16.3615 12.5649 15.8437 12.5649C15.326 12.5649 14.9062 12.9845 14.9062 13.5021Z" fill="currentColor"/>
    <path d="M7.21874 6.04655V19.3094C7.21874 19.8271 7.63848 20.2467 8.15625 20.2467C8.66592 20.2467 9.08061 19.8401 9.09345 19.3336L9.09376 19.3094V6.04655L9.09345 6.02236C9.08062 5.51587 8.66593 5.10924 8.15625 5.10924C7.64657 5.10924 7.23188 5.51587 7.21905 6.02236L7.21874 6.04655Z" fill="currentColor"/>
    <path d="M17.8125 4.92581C17.8125 5.57287 18.3371 6.09744 18.9844 6.09744C19.6316 6.09744 20.1562 5.57287 20.1562 4.92581C20.1562 4.27874 19.6316 3.75417 18.9844 3.75417C18.3371 3.75417 17.8125 4.27874 17.8125 4.92581Z" fill="currentColor"/>
</svg>