<svg width="25" height="24" viewBox="0 0 25 24" fill="none" xmlns="http://www.w3.org/2000/svg">
    <path d="M18.875 8.4375C18.875 4.78173 16.0937 1.875 12.5 1.875C8.90635 1.875 6.125 4.78173 6.125 8.4375V13.6875C6.125 15.2406 4.86603 16.4999 3.31259 16.5C2.7948 16.5 2.375 16.9197 2.375 17.4375C2.375 17.9552 2.79473 18.375 3.3125 18.375H21.6875C22.2053 18.375 22.625 17.9552 22.625 17.4375C22.625 16.9197 22.2053 16.5 21.6875 16.5C20.1339 16.5 18.875 15.2408 18.875 13.6875V8.4375ZM20.75 13.6875C20.75 14.2054 21.1695 14.625 21.6875 14.625C23.2408 14.625 24.5 15.8842 24.5 17.4375C24.5 18.9907 23.2409 20.25 21.6875 20.25H3.3125C1.75914 20.25 0.5 18.9907 0.5 17.4375C0.5 15.8842 1.75917 14.625 3.3125 14.625C3.83033 14.625 4.25 14.2053 4.25 13.6875V8.4375C4.25 3.80886 7.80924 0 12.5 0C17.1908 0 20.75 3.80886 20.75 8.4375V13.6875Z" fill="currentColor"/>
    <path d="M9.6875 21.1875V19.3125C9.6875 18.7947 10.1072 18.375 10.625 18.375C11.1428 18.375 11.5625 18.7947 11.5625 19.3125V21.1875C11.5625 21.7052 11.9823 22.125 12.5 22.125C13.0177 22.125 13.4375 21.7052 13.4375 21.1875V19.3125C13.4375 18.7947 13.8572 18.375 14.375 18.375C14.8928 18.375 15.3125 18.7947 15.3125 19.3125V21.1875C15.3125 22.7408 14.0533 24 12.5 24C10.9467 24 9.6875 22.7408 9.6875 21.1875Z" fill="currentColor"/>
    <path d="M22.625 11.8125V6.5625C22.625 6.04473 23.0447 5.625 23.5625 5.625C24.0803 5.625 24.5 6.04473 24.5 6.5625V11.8125C24.5 12.3303 24.0803 12.75 23.5625 12.75C23.0447 12.75 22.625 12.3303 22.625 11.8125Z" fill="currentColor"/>
    <path d="M0.5 11.8125V6.5625C0.5 6.04473 0.919733 5.625 1.4375 5.625C1.95527 5.625 2.375 6.04473 2.375 6.5625V11.8125C2.375 12.3303 1.95527 12.75 1.4375 12.75C0.919733 12.75 0.5 12.3303 0.5 11.8125Z" fill="currentColor"/>
</svg>