<svg width="25" height="24" viewBox="0 0 25 24" fill="none" xmlns="http://www.w3.org/2000/svg">
    <path d="M22.625 12C22.625 6.40815 18.0919 1.87503 12.5 1.87502C6.90815 1.87502 2.37502 6.40815 2.37502 12C2.37503 17.5919 6.90815 22.125 12.5 22.125C18.0919 22.125 22.625 17.5919 22.625 12ZM13.1499 14.4844C15.2999 14.4844 17.2218 15.4627 18.4941 16.9946L18.524 17.0309L18.5391 17.0498C18.8501 17.4499 18.7871 18.0273 18.3928 18.3503C17.9985 18.6732 17.4199 18.6214 17.089 18.2376L17.0735 18.2191L17.0294 18.1661C16.0981 17.0599 14.7062 16.3594 13.1499 16.3594H12.0376C10.4566 16.3594 9.04522 17.0823 8.11407 18.2191L8.09848 18.2376C7.76755 18.6213 7.18904 18.6732 6.79475 18.3503C6.39421 18.0222 6.33545 17.4315 6.66353 17.0309L6.69347 16.9946C7.96567 15.4627 9.88767 14.4844 12.0376 14.4844H13.1499ZM15.0781 8.39063C15.0781 6.94087 13.9029 5.76562 12.4531 5.76562C11.0034 5.76563 9.82814 6.94087 9.82814 8.39063C9.82814 9.84039 11.0034 11.0156 12.4531 11.0156C13.9029 11.0156 15.0781 9.8404 15.0781 8.39063ZM24.5 12C24.5 18.6274 19.1274 24 12.5 24C5.87262 24 0.500006 18.6274 0.5 12C0.5 5.37261 5.87261 0 12.5 0C19.1274 6.38166e-06 24.5 5.37262 24.5 12ZM16.9531 8.39063C16.9531 10.8759 14.9384 12.8906 12.4531 12.8906C9.96783 12.8906 7.95312 10.8759 7.95312 8.39063C7.95312 5.90534 9.96783 3.89064 12.4531 3.89063C14.9384 3.89063 16.9531 5.90534 16.9531 8.39063Z" fill="currentColor"/>
  </svg>