<svg width="27" height="24" viewBox="0 0 27 24" fill="none" xmlns="http://www.w3.org/2000/svg">
  <path d="M18.2837 22.0165C18.8341 22.0165 19.2803 22.4605 19.2803 23.0083C19.2803 23.556 18.8341 24 18.2837 24H8.71614C8.16572 24 7.71951 23.556 7.71951 23.0083C7.71951 22.4605 8.16572 22.0165 8.71614 22.0165H18.2837ZM24.2634 14.0826V5.95041C24.2634 3.75956 22.4786 1.98347 20.2769 1.98347H6.72289C4.52124 1.98347 2.73641 3.75956 2.73641 5.95041V14.0837C2.73642 16.274 4.52074 18.0496 6.72182 18.0496H20.2769C22.4786 18.0496 24.2634 16.2735 24.2634 14.0826ZM13.9282 11.6529C15.7784 11.6529 17.3353 12.9002 17.7963 14.5858L17.807 14.6257L17.8132 14.6506C17.9359 15.1725 17.6185 15.6996 17.0942 15.8357C16.5699 15.9717 16.0342 15.6661 15.8851 15.151L15.8783 15.1263L15.8674 15.0866C15.6305 14.2552 14.8518 13.6364 13.9282 13.6364H13.3707C12.4324 13.6364 11.6438 14.275 11.4206 15.1263C11.2817 15.6563 10.7373 15.9739 10.2047 15.8357C9.6721 15.6974 9.35296 15.1557 9.49188 14.6257C9.93904 12.9199 11.5059 11.6529 13.3707 11.6529H13.9282ZM14.8454 7.43802C14.8454 6.80815 14.3322 6.29752 13.6992 6.29752C13.0663 6.29752 12.5531 6.80815 12.5531 7.43802C12.5531 8.06788 13.0663 8.57851 13.6992 8.57851C14.3322 8.57851 14.8454 8.06788 14.8454 7.43802ZM16.8386 7.43802C16.8386 9.16332 15.4331 10.562 13.6992 10.562C11.9654 10.562 10.5599 9.16332 10.5599 7.43802C10.5599 5.71271 11.9654 4.31405 13.6992 4.31405C15.4331 4.31405 16.8386 5.71271 16.8386 7.43802ZM26.2567 14.0826C26.2567 17.3689 23.5794 20.0331 20.2769 20.0331H6.72182C3.4199 20.033 0.743177 17.3694 0.743164 14.0837V5.95041C0.743164 2.66411 3.4204 0 6.72289 0H20.2769C23.5794 0 26.2567 2.66411 26.2567 5.95041V14.0826Z" fill="currentColor"/>
</svg>