<svg width="24" height="24" viewBox="0 0 24 24" fill="none" xmlns="http://www.w3.org/2000/svg">
<path d="M22.125 5.625C22.125 3.55391 20.4461 1.87502 18.375 1.87502H5.625C3.55392 1.87503 1.87503 3.55392 1.87502 5.625V18.375C1.87502 20.4461 3.55391 22.125 5.625 22.125H18.375C20.4461 22.125 22.125 20.4461 22.125 18.375V5.625ZM16.7344 12.9367L16.7586 12.937C17.2652 12.9498 17.6719 13.3645 17.6719 13.8742C17.6719 14.3839 17.2652 14.7986 16.7586 14.8114L16.7344 14.8117H7.35939C6.84163 14.8117 6.42189 14.3919 6.42188 13.8742C6.42188 13.3564 6.84163 12.9367 7.35939 12.9367H16.7344ZM16.7344 9.1867L16.7586 9.187C17.2652 9.19984 17.6719 9.6145 17.6719 10.1242C17.6719 10.6338 17.2652 11.0485 16.7586 11.0614L16.7344 11.0617H7.35939C6.84163 11.0617 6.42188 10.6419 6.42188 10.1242C6.42189 9.60641 6.84163 9.1867 7.35939 9.1867H16.7344ZM24 18.375C24 21.4816 21.4816 24 18.375 24H5.625C2.51838 24 5.79827e-07 21.4816 0 18.375V5.625C6.08975e-06 2.51838 2.51838 6.08817e-06 5.625 0H18.375C21.4816 5.79978e-07 24 2.51838 24 5.625V18.375Z" fill="#1D1D1D"/>
</svg>
