<svg width="25" height="24" viewBox="0 0 25 24" fill="none" xmlns="http://www.w3.org/2000/svg">
    <path d="M18.125 13.125C18.6428 13.125 19.0625 13.5447 19.0625 14.0625C19.0625 14.5803 18.6428 15 18.125 15H6.875C6.35723 15 5.9375 14.5803 5.9375 14.0625C5.9375 13.5447 6.35723 13.125 6.875 13.125H18.125Z" fill="currentColor"/>
    <path d="M7.8125 14.0625V10.3125C7.8125 9.79473 8.23223 9.375 8.75 9.375C9.26777 9.375 9.6875 9.79473 9.6875 10.3125V14.0625C9.6875 14.5803 9.26777 15 8.75 15C8.23223 15 7.8125 14.5803 7.8125 14.0625Z" fill="currentColor"/>
    <path d="M11.5625 14.0625V8.4375C11.5625 7.91973 11.9822 7.5 12.5 7.5C13.0178 7.5 13.4375 7.91973 13.4375 8.4375V14.0625C13.4375 14.5803 13.0178 15 12.5 15C11.9822 15 11.5625 14.5803 11.5625 14.0625Z" fill="currentColor"/>
    <path d="M15.3125 14.0625V6.5625C15.3125 6.04473 15.7322 5.625 16.25 5.625C16.7678 5.625 17.1875 6.04473 17.1875 6.5625V14.0625C17.1875 14.5803 16.7678 15 16.25 15C15.7322 15 15.3125 14.5803 15.3125 14.0625Z" fill="currentColor"/>
    <path d="M22.625 15.9375V4.6875C22.625 3.13419 21.3658 1.875 19.8125 1.875H5.1875C3.63419 1.875 2.375 3.13419 2.375 4.6875V15.9375C2.375 17.4908 3.63419 18.75 5.1875 18.75H12.5C13.0178 18.75 13.4375 19.1697 13.4375 19.6875V23.0625C13.4375 23.5803 13.0178 24 12.5 24C11.9822 24 11.5625 23.5803 11.5625 23.0625V20.625H5.1875C2.59865 20.625 0.5 18.5263 0.5 15.9375V4.6875C0.5 2.09865 2.59865 0 5.1875 0H19.8125C22.4013 0 24.5 2.09865 24.5 4.6875V15.9375C24.5 18.5263 22.4013 20.625 19.8125 20.625H16.25C15.7322 20.625 15.3125 20.2053 15.3125 19.6875C15.3125 19.1697 15.7322 18.75 16.25 18.75H19.8125C21.3658 18.75 22.625 17.4908 22.625 15.9375Z" fill="currentColor"/>
    <path d="M16.25 22.125C16.7678 22.125 17.1875 22.5447 17.1875 23.0625C17.1875 23.5803 16.7678 24 16.25 24H8.75C8.23223 24 7.8125 23.5803 7.8125 23.0625C7.8125 22.5447 8.23223 22.125 8.75 22.125H16.25Z" fill="currentColor"/>
  </svg>