<svg width="24" height="24" viewBox="0 0 24 24" fill="none" xmlns="http://www.w3.org/2000/svg">
    <path d="M3.75 4.6875C3.75 4.16972 4.16972 3.75 4.6875 3.75C5.20528 3.75 5.625 4.16972 5.625 4.6875C5.625 5.20528 5.20528 5.625 4.6875 5.625C4.16972 5.625 3.75 5.20528 3.75 4.6875Z" fill="currentColor"/>
    <path d="M7.5 4.6875C7.5 4.16972 7.91972 3.75 8.4375 3.75C8.95528 3.75 9.375 4.16972 9.375 4.6875C9.375 5.20528 8.95528 5.625 8.4375 5.625C7.91972 5.625 7.5 5.20528 7.5 4.6875Z" fill="currentColor"/>
    <path d="M3.75 15.5625C3.75 15.0447 4.16972 14.625 4.6875 14.625C5.20528 14.625 5.625 15.0447 5.625 15.5625C5.625 16.0803 5.20528 16.5 4.6875 16.5C4.16972 16.5 3.75 16.0803 3.75 15.5625Z" fill="currentColor"/>
    <path d="M7.5 15.5625C7.5 15.0447 7.91972 14.625 8.4375 14.625C8.95528 14.625 9.375 15.0447 9.375 15.5625C9.375 16.0803 8.95528 16.5 8.4375 16.5C7.91972 16.5 7.5 16.0803 7.5 15.5625Z" fill="currentColor"/>
    <path d="M22.125 4.68749C22.125 6.2408 20.8658 7.49998 19.3125 7.49999H4.68752C3.13421 7.49999 1.87502 6.2408 1.87502 4.68749C1.87503 3.13418 3.13422 1.87499 4.68752 1.87499H19.3125C20.8658 1.875 22.125 3.13419 22.125 4.68749ZM24 4.68749C24 2.09865 21.9014 6.77678e-06 19.3125 0H4.68752C2.09868 0 6.30567e-06 2.09865 0 4.68749C0 7.27633 2.09868 9.37501 4.68752 9.37501H19.3125C21.9014 9.37501 24 7.27633 24 4.68749Z" fill="currentColor"/>
    <path d="M22.125 15.5625C22.125 17.1158 20.8658 18.375 19.3125 18.375H4.68752C3.13421 18.375 1.87502 17.1158 1.87502 15.5625C1.87503 14.0092 3.13422 12.75 4.68752 12.75H19.3125C20.8658 12.75 22.125 14.0092 22.125 15.5625ZM24 15.5625C24 12.9737 21.9014 10.875 19.3125 10.875H4.68752C2.09868 10.875 6.30567e-06 12.9737 0 15.5625C0 18.1514 2.09868 20.25 4.68752 20.25H19.3125C21.9014 20.25 24 18.1514 24 15.5625Z" fill="currentColor"/>
    <path d="M13.875 24L13.8992 23.9997C14.4058 23.9869 14.8125 23.5722 14.8125 23.0625C14.8125 22.5528 14.4058 22.1381 13.8992 22.1253L13.875 22.125H10.125C9.60725 22.125 9.1875 22.5447 9.1875 23.0625C9.1875 23.5803 9.60725 24 10.125 24H13.875Z" fill="currentColor"/>
    <path d="M19.3125 5.62501L19.3367 5.6247C19.8433 5.61187 20.25 5.19718 20.25 4.6875C20.25 4.17782 19.8433 3.76313 19.3367 3.7503L19.3125 3.74999H17.4375C16.9197 3.74999 16.5 4.16973 16.5 4.6875C16.5 5.20527 16.9197 5.62501 17.4375 5.62501H19.3125Z" fill="currentColor"/>
    <path d="M19.3125 16.5L19.3367 16.4997C19.8433 16.4869 20.25 16.0722 20.25 15.5625C20.25 15.0528 19.8433 14.6381 19.3367 14.6253L19.3125 14.625H17.4375C16.9197 14.625 16.5 15.0447 16.5 15.5625C16.5 16.0803 16.9197 16.5 17.4375 16.5H19.3125Z" fill="currentColor"/>
  </svg>